<svg xmlns="http://www.w3.org/2000/svg" xmlns:xlink="http://www.w3.org/1999/xlink" width="505" height="305" viewBox="0 0 505 305">
  <defs>
    <clipPath id="clip-path">
      <rect id="Rectángulo_411244" data-name="Rectángulo 411244" width="505" height="305" transform="translate(815.051 7313)" fill="#fff" stroke="#707070" stroke-width="1"/>
    </clipPath>
    <filter id="Rectángulo_411240" x="44" y="57.323" width="418" height="168" filterUnits="userSpaceOnUse">
      <feOffset dy="3" input="SourceAlpha"/>
      <feGaussianBlur stdDeviation="3" result="blur"/>
      <feFlood flood-opacity="0.161"/>
      <feComposite operator="in" in2="blur"/>
      <feComposite in="SourceGraphic"/>
    </filter>
    <clipPath id="clip-path-2">
      <rect id="Rectángulo_411243" data-name="Rectángulo 411243" width="304" height="305" transform="translate(992.051 7325)" fill="#fff" stroke="#707070" stroke-width="1"/>
    </clipPath>
    <clipPath id="clip-path-3">
      <rect id="Rectángulo_411241" data-name="Rectángulo 411241" width="286.208" height="316.779" fill="none"/>
    </clipPath>
  </defs>
  <g id="Enmascarar_grupo_1099529" data-name="Enmascarar grupo 1099529" transform="translate(-815.051 -7313)" clip-path="url(#clip-path)">
    <g id="Grupo_1213028" data-name="Grupo 1213028" transform="translate(-56.949)">
      <g transform="matrix(1, 0, 0, 1, 872, 7313)" filter="url(#Rectángulo_411240)">
        <rect id="Rectángulo_411240-2" data-name="Rectángulo 411240" width="400" height="150" rx="23" transform="translate(53 63.32)" fill="#3e5b2c"/>
      </g>
      <g id="Enmascarar_grupo_1099528" data-name="Enmascarar grupo 1099528" transform="translate(0 -12)" clip-path="url(#clip-path-2)">
        <g id="Grupo_1213027" data-name="Grupo 1213027" transform="translate(981.896 7324.501)">
          <g id="Grupo_1213026" data-name="Grupo 1213026" transform="translate(0 0)">
            <g id="Grupo_1213025" data-name="Grupo 1213025" transform="translate(0 0)" clip-path="url(#clip-path-3)">
              <path id="Trazado_1254011" data-name="Trazado 1254011" d="M230.045,626.672c.45,6.537.114,14.94-2.223,21.061l-13.552-14.158,2.709-8.2,4.732-1.011,7.153,1.878" transform="translate(14.114 -502.335)" fill="#a44f0e"/>
              <path id="Trazado_1254012" data-name="Trazado 1254012" d="M1138.166,544.553a38.957,38.957,0,0,0-9.133-40.395c-1.474-1.437-3.827-2.789-5.417-1.481-1.348,1.109-.975,3.229-.478,4.9,1.07,3.607,2.14,7.213,3.025,10.882-4.248.291-8.344-1.455-12.218-3.224q-12.358-5.642-24.331-12.08a14.5,14.5,0,0,0-4.131-1.707,4.793,4.793,0,0,0-4.2,1.025,2.981,2.981,0,0,0-.3,4.005,5,5,0,0,0-4.768,2.34,4.686,4.686,0,0,0,.867,5.71c.4,4.56,3.19,8.532,6.122,12.047A100.6,100.6,0,0,0,1112.2,550.39c4.042,2.205,8.42,4.174,13.024,4.109s10.154-2.391,12.939-9.945" transform="translate(-1064.407 -403.364)" fill="#f5a387"/>
              <path id="Trazado_1254013" data-name="Trazado 1254013" d="M1166.7,630.217a.937.937,0,0,0,.73-1.523c-2.912-3.639-6.213-7.762-7.56-12.488a6.02,6.02,0,0,1-.265-2.79,2.1,2.1,0,0,1,1.356-1.64c.9-.224,1.949.475,2.854,1.191a70.385,70.385,0,0,1,9.581,9.143.936.936,0,0,0,1.02.269,21.844,21.844,0,0,1,13.956-.669.937.937,0,1,0,.556-1.79,23.409,23.409,0,0,0-14.533.486,72.345,72.345,0,0,0-9.419-8.911c-1.261-1-2.773-1.953-4.467-1.538a3.918,3.918,0,0,0-2.737,3.067,7.722,7.722,0,0,0,.295,3.7c1.451,5.089,4.877,9.369,7.9,13.146a.933.933,0,0,0,.732.351" transform="translate(-1129.636 -490.665)" fill="#dc4b41"/>
              <path id="Trazado_1254014" data-name="Trazado 1254014" d="M1312.663,570.325a.937.937,0,0,0,.609-1.649,81.633,81.633,0,0,0-11.85-8.433,9.037,9.037,0,0,0-3.782-1.444,3.91,3.91,0,0,0-3.979,2.155.937.937,0,0,0,1.731.719,2.1,2.1,0,0,1,2.1-1.006,7.394,7.394,0,0,1,2.984,1.193,79.645,79.645,0,0,1,11.577,8.239.936.936,0,0,0,.61.225" transform="translate(-1280.215 -449.573)" fill="#dc4b41"/>
              <path id="Trazado_1254015" data-name="Trazado 1254015" d="M1262.416,543.538a.937.937,0,0,0,.358-1.8,56.231,56.231,0,0,1-16.08-10.1l-.743-.671c-2.554-2.314-5.45-4.937-9.134-5.2a.937.937,0,1,0-.132,1.869c3.038.215,5.564,2.5,8.007,4.718l.751.678a58.123,58.123,0,0,0,16.614,10.434.946.946,0,0,0,.358.071" transform="translate(-1218.676 -423.009)" fill="#dc4b41"/>
              <path id="Trazado_1254016" data-name="Trazado 1254016" d="M762.529,663.328a298.782,298.782,0,0,0,40.994,87.824,11.386,11.386,0,0,0,10.37,4.868.318.318,0,0,0,.131-.019,11.661,11.661,0,0,0,9.325-6.323q2.826-5.539,5.334-11.228a248.037,248.037,0,0,0,12.962-36.238l-24.8-35.268q-1.763,9.679-4.29,19.229-1.79,6.826-4.01,13.521a216.689,216.689,0,0,1-31.407-53,209.449,209.449,0,0,0-14.6,16.636" transform="translate(-704.467 -520.3)" fill="#f5a387"/>
              <path id="Trazado_1254017" data-name="Trazado 1254017" d="M914.725,921.078a.937.937,0,0,0,.653-1.609l-2.673-2.6a.937.937,0,0,0-1.307,1.343l2.673,2.6a.934.934,0,0,0,.653.265" transform="translate(-807.525 -737.46)" fill="#dc4b41"/>
              <path id="Trazado_1254018" data-name="Trazado 1254018" d="M605.549,105.247a38.491,38.491,0,0,0,10.687,25.01c-2.48,9.325-5,18.874-4.178,28.5s5.633,19.49,14.3,23.7c7.031,3.394,15.517,2.611,22.772-.336,7.236-2.947,13.484-7.833,19.639-12.645l-17.643-70.89L637.7,79.938l-9.195-12.775-2.462-3.432a43.933,43.933,0,0,0-5.875,4.831,48.165,48.165,0,0,0-14.1,26.577,43.751,43.751,0,0,0-.522,10.109" transform="translate(-500.899 -51.274)" fill="#642414"/>
              <path id="Trazado_1254019" data-name="Trazado 1254019" d="M633.875,396.069c-1.117,5.927-2.237,11.9-2.232,17.928s1.208,12.2,4.424,17.3a56.313,56.313,0,0,1,4.842-22.418,43.257,43.257,0,0,0,9.139,33.167,39.834,39.834,0,0,1,20.5-13.036q-5.514-15.847-9.711-32.112c-7.37,2.811-15.415,3.833-26.964-.829" transform="translate(-507.792 -318.66)" fill="#471a14"/>
              <path id="Trazado_1254020" data-name="Trazado 1254020" d="M204.952,550.725a97.069,97.069,0,0,0,10.482,27.491,90.2,90.2,0,0,0,14.715,19.415l.5.5a80.981,80.981,0,0,0,3.133,17.009c.5,1.7,1.082,3.376,1.7,5.017,3.469,4.215,6.882,6.77,11.825,9.847,30.419,5.427,61.77-2.536,89.223-11.9a39.75,39.75,0,0,0,9.773-21.933,81.392,81.392,0,0,1-19.919-14.585c-2-1.958-3.935-3.954-5.8-6.024,2.163-14.566,10.034-29.5,23.779-37.263a176.374,176.374,0,0,0-36.406-22.809,129.739,129.739,0,0,0-46.663,2.611c-3.8,1.082-7.572,2.275-11.153,3.674-8.3,3.338-14.64,5.651-21.3,9.027a37.794,37.794,0,0,0-5.856,3.711c-6.49,4.98-12.813,9.68-18.035,16.207" transform="translate(-100.152 -413.927)" fill="#f79c1a"/>
              <path id="Trazado_1254021" data-name="Trazado 1254021" d="M481.593,416.964a21.945,21.945,0,0,0,2.8,5.614,18.064,18.064,0,0,0,14.025,7.684,58.458,58.458,0,0,0,34.615-9.083C528.424,407,524.843,393.2,521.244,379.4c-7.442,3.115-14.6,6.173-21.653,9.232-3.711,1.6-7.386,3.208-11.06,4.812a110.232,110.232,0,0,1,3.823,15.928,1.529,1.529,0,0,1-.037.653,1.224,1.224,0,0,1-.317.541,28.507,28.507,0,0,1-10.407,6.4" transform="translate(-340.947 -305.25)" fill="#f5a387"/>
              <path id="Trazado_1254022" data-name="Trazado 1254022" d="M594.3,438.548a1.527,1.527,0,0,1-.037.653,21.077,21.077,0,0,0,10.538-4.943c5.334-4.681,8.15-11.638,8.9-18.594a94.321,94.321,0,0,1-12.16,2.145c-3.711,1.6-7.385,3.208-11.06,4.812a110.289,110.289,0,0,1,3.823,15.928" transform="translate(-442.89 -334.425)" fill="#dc4b41"/>
              <path id="Trazado_1254023" data-name="Trazado 1254023" d="M497.517,105.3c-2.133,8.386-.926,17.214,4.776,23.338s14.5,8.854,22.8,7.982,16.029-5.085,22.045-10.9,10.412-13.151,14.7-21.481a36.514,36.514,0,0,0,2.389-34.664,36.432,36.432,0,0,0-57.3-11.636A37.72,37.72,0,0,0,494.832,80.1a52.235,52.235,0,0,0,2.685,25.2" transform="translate(-377.898 -39.142)" fill="#f5a387"/>
              <path id="Trazado_1254024" data-name="Trazado 1254024" d="M335.983,66.583a23.184,23.184,0,0,0,16.673,16.711c-2.163,10.5,4.084,15.237,10.705,18.072a12.433,12.433,0,0,1-7.311,2.238c.727,7.012-1.455,13.969-2.686,20.926-1.38,7.87-1.324,16.8,4.868,22.511a14.845,14.845,0,0,0,4.681,2.835c8.8,3.376,14.752-1.138,20.385-5.483l5.5-4.271a8.064,8.064,0,0,1,8.057-1.1c1.119.466,2.2.951,3.189,1.417-8.989-11.88-16.114-26.334-16.468-41.236-.261-10.444-1.436-20.944-4.607-30.941a71.336,71.336,0,0,0-8.206-17.587c-2.406-3.693-6.192-8.262-10.22-10.015a14.649,14.649,0,0,0-9.736-.522,19.552,19.552,0,0,0-6.024,2.816q-.783.56-1.511,1.175a22.992,22.992,0,0,0-7.5,13.354,22.019,22.019,0,0,0,.205,9.1" transform="translate(-179.391 -31.821)" fill="#642414"/>
              <path id="Trazado_1254025" data-name="Trazado 1254025" d="M396.942,199.433a.937.937,0,0,0,.713-1.544c-1.928-2.269-5.246-3.158-9.859-2.642-.467.052-.938.112-1.412.171-2.656.336-5.4.684-7.718-.316a9.316,9.316,0,0,1-4.709-5.435,26.428,26.428,0,0,1-1.291-7.728c-.262-4.328-.374-8.745-.482-13.018-.174-6.855-.354-13.945-1.158-20.891-1.557-13.464-5.273-23.945-11.361-32.041a.937.937,0,0,0-1.5,1.126c5.882,7.824,9.479,18.006,11,31.132.794,6.862.972,13.908,1.145,20.722.109,4.288.221,8.723.486,13.084a28.392,28.392,0,0,0,1.407,8.272,11.177,11.177,0,0,0,5.723,6.5c2.784,1.2,5.788.822,8.695.455.464-.059.926-.116,1.385-.167,3.957-.446,6.724.228,8.224,1.992a.934.934,0,0,0,.715.33" transform="translate(-181.635 -93.019)" fill="#471a14"/>
              <path id="Trazado_1254026" data-name="Trazado 1254026" d="M401.488,423.059a.937.937,0,0,0,.45-1.759,29.493,29.493,0,0,1-14.952-23.442.937.937,0,0,0-1.871.123,31.406,31.406,0,0,0,15.924,24.963.924.924,0,0,0,.448.115" transform="translate(-191.486 -319.395)" fill="#471a14"/>
              <path id="Trazado_1254027" data-name="Trazado 1254027" d="M380.867,462.553a.937.937,0,0,0,.69-1.571,57.89,57.89,0,0,1-10.2-15.481.937.937,0,0,0-1.709.767,59.774,59.774,0,0,0,10.527,15.983.935.935,0,0,0,.69.3" transform="translate(-167.826 -357.986)" fill="#471a14"/>
              <path id="Trazado_1254028" data-name="Trazado 1254028" d="M69.054,1119.258c5.931.485,12.029.932,18.24,1.324,13.037.839,26.6,1.474,40.322,1.809,26.241.652,53.079.28,77.959-1.53,2.387-10.239,4.047-16.916,4.942-27.379a71.168,71.168,0,0,0-12.831-47.54c-2.518-3.506-5.2-6.938-8.076-10.258a140.263,140.263,0,0,0-18.874-18.315c-3-4.252-7.964-9.605-12.029-15.405a461.166,461.166,0,0,1-73.744,13,78.373,78.373,0,0,0-.429,16.655c-.429,1.38-.858,2.76-1.249,4.14a157.726,157.726,0,0,0-6.211,31.985,7.487,7.487,0,0,0-4.178,4.737c-.6,2.089-.205,4.457,1.38,7.273-4.233,11.6-5.856,24.134-5.222,39.5" transform="translate(61.95 -806.139)" fill="#4d97c9"/>
              <path id="Trazado_1254029" data-name="Trazado 1254029" d="M461.253,304.113c1.8-3.663,4.8-6.881,8.645-8.165s8.551-.28,11.013,2.966a9.817,9.817,0,0,1,1.3,8.784,13.463,13.463,0,0,1-5.642,7.039,16.658,16.658,0,0,1-14.955,1.445" transform="translate(-286.642 -237.671)" fill="#f5a387"/>
              <path id="Trazado_1254030" data-name="Trazado 1254030" d="M553.855,46.975c.019.261.056.5.093.765.093.672.205,1.362.354,2.033.5,2.406-.261,2.723,1.38,6.882a47.449,47.449,0,0,1,25.868-27.416c.485-.205.97-.392,1.455-.578a47.409,47.409,0,0,1,19.583-3,46.9,46.9,0,0,1,16.673,4.085c1.753-1.884,3.357-3.711,4.942-5.558a26.661,26.661,0,0,0-2.947-10.612,26.124,26.124,0,0,0-3.637-5.26,24.311,24.311,0,0,0-7.516-5.67c-7.721-3.674-16.972-3.32-24.935-.186-7.721,3.04-14.3,8.5-19.695,14.827-.168.186-.336.373-.485.56a81.475,81.475,0,0,0-6.416,8.579,31.221,31.221,0,0,0-4.719,20.553" transform="translate(-446.202 0.004)" fill="#642414"/>
              <path id="Trazado_1254031" data-name="Trazado 1254031" d="M443.323,53.969c1.607-4.069,4.059-19.553,22.959-38.084a24.155,24.155,0,0,1,1.884-1.641c5.26-4.122,11.358-7.441,17.979-8.337,6.378-.858,13.3.765,17.923,5.222a6.652,6.652,0,0,1,.522.5c-3.04,1.548-4.961,5.427-4.868,9.288,2.592-5,8.3-7.46,14.006-7.348a18.064,18.064,0,0,1,6.6,1.343c7.255,2.984,12.309,9.754,15.778,16.8.765,1.548,1.473,3.133,2.145,4.719a71.346,71.346,0,0,0-8.206-17.587c-2.406-3.693-6.192-8.262-10.22-10.015a14.651,14.651,0,0,0-9.736-.522,24.314,24.314,0,0,0-7.516-5.67c-7.721-3.674-16.972-3.32-24.936-.186-7.721,3.04-14.3,8.5-19.695,14.827a48.166,48.166,0,0,0-14.1,26.577,43.746,43.746,0,0,0-.522,10.109" transform="translate(-338.672 0.004)" fill="#983e10"/>
              <path id="Trazado_1254032" data-name="Trazado 1254032" d="M177.278,1035.76a172.6,172.6,0,0,0,84.169-6.323,117.317,117.317,0,0,0,22.157,6.248,140.253,140.253,0,0,0-18.874-18.315c-3-4.252-7.964-9.6-12.03-15.405a461.135,461.135,0,0,1-73.744,13,78.372,78.372,0,0,0-.429,16.655c-.429,1.38-.858,2.76-1.249,4.141" transform="translate(-32.044 -806.138)" fill="#327cc0"/>
              <path id="Trazado_1254033" data-name="Trazado 1254033" d="M204.952,700.558c.5,1.7,1.082,3.376,1.7,5.017,3.469,4.215,6.882,6.77,11.824,9.847,30.419,5.427,61.77-2.536,89.224-11.9a39.751,39.751,0,0,0,9.773-21.933,81.392,81.392,0,0,1-19.919-14.585,22.689,22.689,0,0,0-7.069,4.271,66.379,66.379,0,0,1-13.749-20.34,18.662,18.662,0,0,1-1.367-9.587,49.717,49.717,0,0,1,7.562-20.708,53.043,53.043,0,0,0-11.354,15.146,18.29,18.29,0,0,0-1.7,10.864,194.711,194.711,0,0,0,5.889,25.5,49.675,49.675,0,0,1-9.232,15.461,309.532,309.532,0,0,1-34.578-13.727c2.219,11.209,11.283,20.758,22.25,24.563a69.142,69.142,0,0,1-49.256,2.107" transform="translate(-71.318 -499.341)" fill="#ee8410"/>
              <path id="Trazado_1254034" data-name="Trazado 1254034" d="M796.883,756.99a95.109,95.109,0,0,0,15.181,19.881c-2.126-13.055-3.917-26.745-4.737-40.191a73.449,73.449,0,0,0-10.444,20.31" transform="translate(-681.601 -592.701)" fill="#ee8410"/>
              <path id="Trazado_1254035" data-name="Trazado 1254035" d="M676.757,245.018a10.8,10.8,0,0,0-2.778-4.688,6.313,6.313,0,0,0-5.032-1.761,4.5,4.5,0,0,0-3.82,3.458c3.22-.865,7.374.328,11.629,2.991" transform="translate(-520.544 -191.904)" fill="#642414"/>
              <path id="Trazado_1254036" data-name="Trazado 1254036" d="M811.893,226.88a13.825,13.825,0,0,0-3.516-3.668,5.217,5.217,0,0,0-4.659-.715,4.111,4.111,0,0,0-2.528,4.119c3.152-1.471,6.9-1.264,10.7.264" transform="translate(-682.268 -178.786)" fill="#642414"/>
              <path id="Trazado_1254037" data-name="Trazado 1254037" d="M698.512,301.484c.2-2.7-.784-4.967-2.2-5.071s-2.719,2-2.918,4.693.784,4.967,2.2,5.072,2.719-2,2.918-4.694" transform="translate(-547.845 -238.477)" fill="#3e1f25"/>
              <path id="Trazado_1254038" data-name="Trazado 1254038" d="M810.723,301.256c0-2.7-1.148-4.9-2.564-4.9s-2.564,2.192-2.564,4.9,1.148,4.9,2.564,4.9,2.564-2.192,2.564-4.9" transform="translate(-681.962 -238.438)" fill="#3e1f25"/>
              <path id="Trazado_1254039" data-name="Trazado 1254039" d="M788.033,331.42a.937.937,0,0,0,.872-1.279,7.117,7.117,0,0,1,1.525-7.207A.938.938,0,1,0,789,321.722a8.96,8.96,0,0,0-1.838,9.1.936.936,0,0,0,.872.595" transform="translate(-658.18 -258.577)" fill="#dc4b41"/>
              <path id="Trazado_1254040" data-name="Trazado 1254040" d="M487.95,342.242a.933.933,0,0,0,.732-.351,9.556,9.556,0,0,1,9.358-3.292.938.938,0,0,0,.408-1.83,11.481,11.481,0,0,0-11.229,3.951.937.937,0,0,0,.73,1.523" transform="translate(-308.157 -270.745)" fill="#dc4b41"/>
              <path id="Trazado_1254041" data-name="Trazado 1254041" d="M508.994,347.467l.054,0a.936.936,0,0,0,.882-.988,8.17,8.17,0,0,0-1.857-4.724.937.937,0,0,0-1.442,1.2,6.287,6.287,0,0,1,1.428,3.633.936.936,0,0,0,.934.884" transform="translate(-322.699 -274.686)" fill="#dc4b41"/>
              <path id="Trazado_1254042" data-name="Trazado 1254042" d="M689.216,374.8a11.5,11.5,0,0,0,8.561,5.894,11.138,11.138,0,0,0,1.361.093,12.15,12.15,0,0,0,9.829-5.054,11.592,11.592,0,0,0,1.958-7.74,11.847,11.847,0,0,0-.243-1.418,9.765,9.765,0,0,0-.56-1.772,93.935,93.935,0,0,1-18.669,9.232c-.746.261-1.492.522-2.238.765" transform="translate(-559.48 -293.504)" fill="#3e1f25"/>
              <path id="Trazado_1254043" data-name="Trazado 1254043" d="M689.216,387.986a11.138,11.138,0,0,0,1.361.093,12.15,12.15,0,0,0,9.829-5.054,11.592,11.592,0,0,0,1.958-7.74,11.833,11.833,0,0,0-.242-1.417,16.867,16.867,0,0,0-8.915,5.241,16.5,16.5,0,0,0-1.66,2.275,16.778,16.778,0,0,0-2.331,6.6" transform="translate(-550.919 -300.798)" fill="#d74150"/>
              <path id="Trazado_1254044" data-name="Trazado 1254044" d="M689.528,374.034a8.2,8.2,0,0,0,7.05.69c.541-.205,1.082-.41,1.6-.634a50.237,50.237,0,0,0,10.817-6.1,11.847,11.847,0,0,0-.242-1.418,9.765,9.765,0,0,0-.56-1.772,93.935,93.935,0,0,1-18.669,9.232" transform="translate(-557.554 -293.504)" fill="#fff"/>
              <path id="Trazado_1254045" data-name="Trazado 1254045" d="M483.787,1389.97c.149,14.193.3,28.386.41,42.784,13.037.839,26.6,1.474,40.322,1.809.671-8.187,1.38-15.368,2.089-23.649a135.773,135.773,0,0,1-42.821-20.945" transform="translate(-334.953 -1118.31)" fill="#327cc0"/>
              <path id="Trazado_1254046" data-name="Trazado 1254046" d="M443.016,763.393a24.887,24.887,0,0,0-2.957-32.486,6.783,6.783,0,0,0-2.518-1.7,2.811,2.811,0,0,0-2.855.55c-.929.965-.748,2.51-.5,3.828a39.786,39.786,0,0,0,3.042,10.647,56.36,56.36,0,0,1-23.309-18.747c-1.243-1.73-2.511-3.632-4.5-4.4s-4.823.394-5.109,2.875a8.313,8.313,0,0,0-2.65-2.995,3.95,3.95,0,0,0-3.845-.312,4.139,4.139,0,0,0-1.94,2.881,11.542,11.542,0,0,0,0,3.56c-2.09.01-3.752,1.979-4.15,4.03s.156,4.155,1.111,6.646a9.231,9.231,0,0,0-1.185,7.763,21.767,21.767,0,0,0,3.742,7.153c4.846,6.705,11.086,12.684,18.8,15.668s17.058,2.546,23.609-2.508" transform="translate(-237.968 -579.508)" fill="#f5a387"/>
              <path id="Trazado_1254047" data-name="Trazado 1254047" d="M559.49,761.71a.937.937,0,0,0,.555-1.692,27.442,27.442,0,0,1-10.552-16.592.937.937,0,1,0-1.838.364,29.328,29.328,0,0,0,11.281,17.738.932.932,0,0,0,.554.182" transform="translate(-381.252 -597.521)" fill="#dc4b41"/>
              <path id="Trazado_1254048" data-name="Trazado 1254048" d="M598.535,780.266a.937.937,0,0,0,.66-1.6,55.137,55.137,0,0,1-12-17.9.937.937,0,1,0-1.731.716,57.013,57.013,0,0,0,12.413,18.512.933.933,0,0,0,.66.272" transform="translate(-427.675 -611.614)" fill="#dc4b41"/>
              <path id="Trazado_1254049" data-name="Trazado 1254049" d="M622.156,830.372a.937.937,0,0,0,.565-1.686,31.307,31.307,0,0,1-10.127-13.141.937.937,0,0,0-1.735.71,33.2,33.2,0,0,0,10.734,13.928.933.933,0,0,0,.563.188" transform="translate(-456.26 -655.684)" fill="#dc4b41"/>
              <path id="Trazado_1254050" data-name="Trazado 1254050" d="M57.3,730.477c23.35,16.188,49.33,27.733,78.276,31.538a13.378,13.378,0,0,0,12.179-4.644,1.947,1.947,0,0,0,.168-.205,22.893,22.893,0,0,0,2.648-23.462,214.471,214.471,0,0,0-27.416-45.824q-4.5-5.791-9.456-11.246c-.522-.6-1.082-1.194-1.623-1.79a58.312,58.312,0,0,0-16.431,39.595s.671.615,1.734,1.585c1.194,1.119,2.891,2.667,4.681,4.308,4.2,3.842,8.915,8.113,9.1,8.113a119.356,119.356,0,0,1-31.482-6.136s-21.355,8.5-22.381,8.169" transform="translate(122.383 -542.95)" fill="#f5a387"/>
              <path id="Trazado_1254051" data-name="Trazado 1254051" d="M190.983,948.981a.937.937,0,0,0,.012-1.874,146.579,146.579,0,0,1-16.071-1.089.937.937,0,1,0-.229,1.859,148.215,148.215,0,0,0,16.276,1.1Z" transform="translate(60.305 -761.118)" fill="#dc4b41"/>
              <path id="Trazado_1254052" data-name="Trazado 1254052" d="M285.155,1111.382a150.553,150.553,0,0,0,60.216-12.514.937.937,0,1,0-.752-1.717,148.712,148.712,0,0,1-86.152,9.912.937.937,0,1,0-.344,1.843,147.637,147.637,0,0,0,27.032,2.476" transform="translate(-110.024 -882.657)" fill="#1e488a"/>
              <path id="Trazado_1254053" data-name="Trazado 1254053" d="M521.616,1431.222a.937.937,0,0,0,.93-.83c.871-7.56,1.406-15.254,1.587-22.872a.938.938,0,0,0-.658-.917,161.031,161.031,0,0,1-43.424-21.276.937.937,0,1,0-1.063,1.543,163.083,163.083,0,0,0,43.254,21.311c-.2,7.329-.719,14.726-1.557,22a.936.936,0,0,0,.824,1.038.854.854,0,0,0,.108.006" transform="translate(-331.46 -1114.443)" fill="#1e488a"/>
              <path id="Trazado_1254054" data-name="Trazado 1254054" d="M281.179,1437.456a.927.927,0,0,0,.482-.135,87.625,87.625,0,0,1,33.831-11.767.937.937,0,0,0,.811-1.049.952.952,0,0,0-1.049-.811,89.515,89.515,0,0,0-34.559,12.021.937.937,0,0,0,.484,1.74" transform="translate(-84.873 -1145.441)" fill="#1e488a"/>
              <path id="Trazado_1254055" data-name="Trazado 1254055" d="M396.894,1314.01a98.584,98.584,0,0,0,23.553-2.832.937.937,0,1,0-.448-1.819,97.965,97.965,0,0,1-57.869-3.577.937.937,0,0,0-.668,1.752,99.6,99.6,0,0,0,35.433,6.477" transform="translate(-205.479 -1050.525)" fill="#1e488a"/>
              <path id="Trazado_1254056" data-name="Trazado 1254056" d="M520.2,1223.6a.937.937,0,0,0,.894-1.218,31.768,31.768,0,0,1,3.153-25.74.936.936,0,0,0,.132-.587c-1.233-11.652-2.158-23.286-3.052-34.537a.952.952,0,0,0-1.008-.86.937.937,0,0,0-.86,1.008c.888,11.162,1.8,22.7,3.024,34.273a33.683,33.683,0,0,0-3.177,27.005.938.938,0,0,0,.894.656" transform="translate(-339.377 -933.818)" fill="#1e488a"/>
              <path id="Trazado_1254057" data-name="Trazado 1254057" d="M554.336,1211.423c.273,0,.546-.011.819-.035a.937.937,0,1,0-.157-1.867,8.7,8.7,0,0,1-6.548-15.146.937.937,0,0,0,.3-.81c-1.428-11.8-2.245-22.563-2.5-32.9a.976.976,0,0,0-.96-.914.937.937,0,0,0-.914.96c.252,10.256,1.055,20.927,2.455,32.607a10.573,10.573,0,0,0,7.5,18.1" transform="translate(-376.074 -933.089)" fill="#1e488a"/>
              <path id="Trazado_1254058" data-name="Trazado 1254058" d="M153.1,1208.24a.937.937,0,0,0,.9-.678,161.357,161.357,0,0,0,6.249-47.955,43.336,43.336,0,0,0-6.557-21.878,190.147,190.147,0,0,0-22.169-29.251.938.938,0,0,0-1.375,1.276,188.108,188.108,0,0,1,21.95,28.962,41.459,41.459,0,0,1,6.277,20.93,159.492,159.492,0,0,1-6.176,47.4.937.937,0,0,0,.641,1.16.948.948,0,0,0,.259.037" transform="translate(100.534 -891.591)" fill="#1e488a"/>
              <path id="Trazado_1254059" data-name="Trazado 1254059" d="M230.832,1148.58a24.583,24.583,0,0,0,9.1-1.727.937.937,0,1,0-.7-1.741,22.575,22.575,0,0,1-27.868-9.548.938.938,0,1,0-1.618.948,24.806,24.806,0,0,0,13.171,10.771,24.471,24.471,0,0,0,7.907,1.3" transform="translate(4.713 -913.253)" fill="#1e488a"/>
              <path id="Trazado_1254060" data-name="Trazado 1254060" d="M682.169,1172.687a.921.921,0,0,0,.3-.049,16.132,16.132,0,0,0,10.648-14.4.938.938,0,0,0-.912-.963.965.965,0,0,0-.963.912,14.2,14.2,0,0,1-9.373,12.68.937.937,0,0,0,.3,1.825" transform="translate(-540.052 -931.09)" fill="#1e488a"/>
              <path id="Trazado_1254061" data-name="Trazado 1254061" d="M804.244,774.152a.957.957,0,0,0,.169-.015.938.938,0,0,0,.755-1.09,192.277,192.277,0,0,1-3.017-38.828.938.938,0,0,0-.914-.96.924.924,0,0,0-.96.914,194.24,194.24,0,0,0,3.047,39.209.938.938,0,0,0,.921.77" transform="translate(-675.372 -589.948)" fill="#b44d0d"/>
              <path id="Trazado_1254062" data-name="Trazado 1254062" d="M826.43,686.617a.937.937,0,0,0,.729-1.525c-5.911-7.354-9.812-16.552-11.925-28.119a.937.937,0,1,0-1.843.337c2.17,11.882,6.2,21.354,12.308,28.957a.936.936,0,0,0,.731.35" transform="translate(-700.127 -527.953)" fill="#b44d0d"/>
              <path id="Trazado_1254063" data-name="Trazado 1254063" d="M340.978,596.872a.937.937,0,0,0,.935-.89c.416-8.33,1.718-12.92,3.827-18.033,2.534-6.146,5.982-10.864,10.249-14.022a.937.937,0,1,0-1.115-1.506c-4.544,3.364-8.2,8.349-10.867,14.815-2.186,5.3-3.536,10.054-3.966,18.653a.937.937,0,0,0,.89.983h.047" transform="translate(-136.619 -452.35)" fill="#b44d0d"/>
              <path id="Trazado_1254064" data-name="Trazado 1254064" d="M362.425,717.814a.937.937,0,0,0,.717-1.54c-8.15-9.694-13.634-23.454-15.047-37.75a.923.923,0,0,0-1.025-.84.937.937,0,0,0-.84,1.025c1.448,14.663,7.089,28.794,15.477,38.771a.937.937,0,0,0,.718.334" transform="translate(-144.82 -545.232)" fill="#b44d0d"/>
            </g>
          </g>
        </g>
      </g>
    </g>
  </g>
</svg>
